<svg version="1.2" xmlns="http://www.w3.org/2000/svg" viewBox="0 0 1440 420" width="1440" height="420"><defs><clipPath clipPathUnits="userSpaceOnUse" id="cp1"><path d="m0 0h1440v420h-1440z"/></clipPath><filter x="-50%" y="-50%" width="200%" height="200%" id="f1"> <feGaussianBlur stdDeviation="60"/> </filter><linearGradient id="P" gradientUnits="userSpaceOnUse"/><linearGradient id="g1" x2="1" href="#P" gradientTransform="matrix(-1600,0,0,-557,1520,434.5)"><stop offset=".2" stop-color="#d387ff" stop-opacity="0"/><stop offset=".5" stop-color="#90b5bb" stop-opacity="1"/><stop offset=".5" stop-color="#90b5bb" stop-opacity="1"/><stop offset=".8" stop-color="#d387ff" stop-opacity="0"/></linearGradient><linearGradient id="g2" x2="1" href="#P" gradientTransform="matrix(-17.708,-354.153,1056.181,-52.809,730.348,349.908)"><stop offset=".2" stop-color="#d387ff" stop-opacity="0"/><stop offset=".5" stop-color="#87e2ff" stop-opacity="1"/><stop offset=".5" stop-color="#87e2ff" stop-opacity="1"/><stop offset=".8" stop-color="#d387ff" stop-opacity="0"/></linearGradient><filter x="-50%" y="-50%" width="200%" height="200%" id="f2"> <feGaussianBlur stdDeviation="10"/> </filter></defs><style>.a{filter:url(#f1);fill:url(#g1)}.b{fill:url(#g2)}.c{filter:url(#f2);fill:#0d0316}</style><g clip-path="url(#cp1)"><g style="opacity:.5"><path fill-rule="evenodd" class="a" d="m720 713c-442.4 0-800-124.5-800-278.5 0-154 357.6-278.5 800-278.5 442.4 0 800 124.5 800 278.5 0 154-357.6 278.5-800 278.5z"/></g><path fill-rule="evenodd" class="b" d="m720 713c-464.5 0-840-124.5-840-278.5 0-154 375.5-278.5 840-278.5 464.5 0 840 124.5 840 278.5 0 154-375.5 278.5-840 278.5z"/><path fill-rule="evenodd" class="c" d="m720 713c-464.5 0-840-122.7-840-274.5 0-151.8 375.5-274.5 840-274.5 464.5 0 840 122.7 840 274.5 0 151.8-375.5 274.5-840 274.5z"/></g></svg>